<svg width="800" height="400" xmlns="http://www.w3.org/2000/svg">
  <defs>
    <style>
      .tool-box { fill: #e3f2fd; stroke: #1976d2; stroke-width: 2; }
      .project-box { fill: #f3e5f5; stroke: #7b1fa2; stroke-width: 2; }
      .output-box { fill: #e8f5e9; stroke: #388e3c; stroke-width: 2; }
      .title { font-size: 20px; font-weight: bold; fill: #000; }
      .label { font-size: 11px; fill: #333; }
      .arrow { stroke: #999; stroke-width: 2; fill: none; marker-end: url(#arrowhead); stroke-dasharray: 5,5; }
    </style>
    <marker id="arrowhead" markerWidth="10" markerHeight="10" refX="9" refY="3" orient="auto">
      <polygon points="0 0, 10 3, 0 6" fill="#999" />
    </marker>
  </defs>

  <!-- Title -->
  <text x="400" y="35" text-anchor="middle" class="title">AI Automation Ecosystem</text>
  <text x="400" y="55" text-anchor="middle" style="font-size: 12px; fill: #666;">Technical Projects & Enterprise Integration</text>

  <!-- Layer 1: Tools & Technologies (Top) -->
  <text x="400" y="85" text-anchor="middle" style="font-size: 12px; font-weight: bold; fill: #1976d2;">Tools & Technologies</text>

  <!-- Python Box -->
  <rect x="50" y="100" width="100" height="60" class="tool-box" rx="4"/>
  <text x="100" y="120" text-anchor="middle" style="font-size: 12px; font-weight: bold;">Python</text>
  <text x="100" y="140" text-anchor="middle" class="label">Automation</text>
  <text x="100" y="152" text-anchor="middle" class="label">Scripting</text>

  <!-- AI Models Box -->
  <rect x="170" y="100" width="100" height="60" class="tool-box" rx="4"/>
  <text x="220" y="120" text-anchor="middle" style="font-size: 12px; font-weight: bold;">AI Models</text>
  <text x="220" y="140" text-anchor="middle" class="label">ChatGPT</text>
  <text x="220" y="152" text-anchor="middle" class="label">Claude</text>

  <!-- RAG Systems Box -->
  <rect x="290" y="100" width="100" height="60" class="tool-box" rx="4"/>
  <text x="340" y="120" text-anchor="middle" style="font-size: 12px; font-weight: bold;">RAG Systems</text>
  <text x="340" y="140" text-anchor="middle" class="label">Knowledge</text>
  <text x="340" y="152" text-anchor="middle" class="label">Management</text>

  <!-- Enterprise Software Box -->
  <rect x="410" y="100" width="120" height="60" class="tool-box" rx="4"/>
  <text x="470" y="120" text-anchor="middle" style="font-size: 12px; font-weight: bold;">DCC Software</text>
  <text x="470" y="135" text-anchor="middle" class="label">Maya, Blender</text>
  <text x="470" y="152" text-anchor="middle" class="label">Houdini, C4D</text>

  <!-- Data Pipelines Box -->
  <rect x="550" y="100" width="100" height="60" class="tool-box" rx="4"/>
  <text x="600" y="120" text-anchor="middle" style="font-size: 12px; font-weight: bold;">Data Pipelines</text>
  <text x="600" y="140" text-anchor="middle" class="label">Web Scraping</text>
  <text x="600" y="152" text-anchor="middle" class="label">Processing</text>

  <!-- Other Tools Box -->
  <rect x="670" y="100" width="80" height="60" class="tool-box" rx="4"/>
  <text x="710" y="125" text-anchor="middle" style="font-size: 11px; font-weight: bold;">PowerShell</text>
  <text x="710" y="145" text-anchor="middle" class="label">VBA</text>

  <!-- Layer 2: Projects (Middle) -->
  <text x="400" y="210" text-anchor="middle" style="font-size: 12px; font-weight: bold; fill: #7b1fa2;">Personal & Enterprise Projects</text>

  <!-- WebLedger -->
  <rect x="60" y="230" width="130" height="70" class="project-box" rx="4"/>
  <text x="125" y="255" text-anchor="middle" style="font-size: 11px; font-weight: bold;">WebLedger</text>
  <text x="125" y="273" text-anchor="middle" class="label">Web audit tool</text>
  <text x="125" y="288" text-anchor="middle" class="label">Scraping automation</text>

  <!-- RAG_VAULT -->
  <rect x="210" y="230" width="130" height="70" class="project-box" rx="4"/>
  <text x="275" y="255" text-anchor="middle" style="font-size: 11px; font-weight: bold;">RAG_VAULT</text>
  <text x="275" y="273" text-anchor="middle" class="label">Knowledge system</text>
  <text x="275" y="288" text-anchor="middle" class="label">AI workflows</text>

  <!-- LinkedinPipeline -->
  <rect x="360" y="230" width="130" height="70" class="project-box" rx="4"/>
  <text x="425" y="255" text-anchor="middle" style="font-size: 11px; font-weight: bold;">LinkedinPipeline</text>
  <text x="425" y="273" text-anchor="middle" class="label">Data automation</text>
  <text x="425" y="288" text-anchor="middle" class="label">Workflow pipeline</text>

  <!-- Urja Renderfarm -->
  <rect x="510" y="230" width="130" height="70" class="project-box" rx="4"/>
  <text x="575" y="250" text-anchor="middle" style="font-size: 11px; font-weight: bold;">Urja Renderfarm</text>
  <text x="575" y="270" text-anchor="middle" class="label">4 DCC pipelines</text>
  <text x="575" y="283" text-anchor="middle" class="label">Asset management</text>
  <text x="575" y="296" text-anchor="middle" class="label">Streaming systems</text>

  <!-- Layer 3: Outcomes (Bottom) -->
  <text x="400" y="350" text-anchor="middle" style="font-size: 12px; font-weight: bold; fill: #388e3c;">Outcomes & Impact</text>

  <!-- Business Impact -->
  <rect x="80" y="365" width="250" height="25" class="output-box" rx="3"/>
  <text x="205" y="383" text-anchor="middle" style="font-size: 11px; fill: #333;">✓ Reduced manual work | Improved consistency | Enabled collaboration</text>

  <!-- Technical Impact -->
  <rect x="470" y="365" width="250" height="25" class="output-box" rx="3"/>
  <text x="595" y="383" text-anchor="middle" style="font-size: 11px; fill: #333;">✓ Production-grade code | Enterprise scale | Multi-tool integration</text>

  <!-- Connectors -->
  <path d="M 100 160 L 125 230" class="arrow"/>
  <path d="M 220 160 L 275 230" class="arrow"/>
  <path d="M 340 160 L 425 230" class="arrow"/>
  <path d="M 470 160 L 575 230" class="arrow"/>
</svg>